PathFileType	4	(X/Y/Z)	C:/Users/opensim2020/Desktop/walking_exp_matlab/subject06_walking17_straight_03.trc	
DataRate	CameraRate	NumFrames	NumMarkers	Units	OrigDataRate	OrigDataStartFrame	OrigNumFrames	
100.00	100.00	4	45	mm	100.00	3318	295	
Frame#	Time	LFHD			RFHD			LBHD			RBHD			C7			T10			CLAV			STRN			RBAK			LSHO			LUPA			LELB			LFRM			LWRA			LWRB			LFIN			RSHO			RUPA			RELB			RFRM			RWRA			RWRB			RFIN			LASI			RASI			LPSI			RPSI			LTHI			LKNE			LTIB			LANK			LHEE			LTOE			RTHI			RKNE			RTIB			RANK			RHEE			RTOE			*39			*40			*41			*42			*43			*44			
		X1	Y1	Z1	X2	Y2	Z2	X3	Y3	Z3	X4	Y4	Z4	X5	Y5	Z5	X6	Y6	Z6	X7	Y7	Z7	X8	Y8	Z8	X9	Y9	Z9	X10	Y10	Z10	X11	Y11	Z11	X12	Y12	Z12	X13	Y13	Z13	X14	Y14	Z14	X15	Y15	Z15	X16	Y16	Z16	X17	Y17	Z17	X18	Y18	Z18	X19	Y19	Z19	X20	Y20	Z20	X21	Y21	Z21	X22	Y22	Z22	X23	Y23	Z23	X24	Y24	Z24	X25	Y25	Z25	X26	Y26	Z26	X27	Y27	Z27	X28	Y28	Z28	X29	Y29	Z29	X30	Y30	Z30	X31	Y31	Z31	X32	Y32	Z32	X33	Y33	Z33	X34	Y34	Z34	X35	Y35	Z35	X36	Y36	Z36	X37	Y37	Z37	X38	Y38	Z38	X39	Y39	Z39	X40	Y40	Z40	X41	Y41	Z41	X42	Y42	Z42	X43	Y43	Z43	X44	Y44	Z44	X45	Y45	Z45	

111	1.100	-1051.35229	-100.92664	1658.63159	-921.55908	-117.05557	1638.55859	-1073.35693	-229.63469	1600.74365	-945.76855	-244.70586	1585.10840	-1022.68170	-233.34511	1442.73669	-1022.94220	-268.94772	1113.71021	-1014.22260	-124.46193	1364.29785	-1022.35303	-85.84346	1188.65649	-950.32117	-312.21298	1271.59961	-1178.75244	-165.69096	1397.94409	-1245.63257	-127.38179	1197.30750	-1252.80396	-99.85504	1086.74512	-1252.35376	-13.27113	962.12946	-1185.72107	81.34035	891.27368	-1229.76697	38.23932	856.11340	-1213.38660	110.41208	804.28326	-855.83722	-178.47504	1393.61877	-773.32581	-225.81516	1195.43823	-760.97449	-221.12544	1073.34229	-743.44641	-206.97903	953.78784	-771.65692	-145.08823	814.56281	-734.58649	-201.61540	816.34308	-731.25092	-165.16139	739.97772	-1126.01843	-86.99359	948.92920	-904.23846	-87.93193	964.20819	-1100.42090	-243.75279	979.90143	-931.35504	-240.47652	986.94171	-1170.09216	-191.78859	634.73956	-1145.03857	-221.87372	473.07022	-1138.46069	-368.10083	258.95090	-1097.36768	-455.88132	109.99252	-1053.30908	-501.29105	112.68354	-1092.28320	-334.40088	34.91432	-844.01605	-90.55442	636.90503	-872.65875	-58.43890	517.46832	-868.04932	-52.00367	251.32729	-911.84924	-28.45781	65.73824	-958.30432	-62.78847	40.26259	-915.31738	127.07899	40.03313	-1003.61578	-209.17819	1689.47266															 
112	1.110	-1049.06946	-94.70444	1660.35913	-919.29553	-110.96107	1639.75171	-1071.37769	-223.32547	1602.19458	-943.89703	-238.52505	1586.14172	-1021.06171	-226.69832	1444.01868	-1021.52850	-261.66595	1115.16223	-1012.80566	-117.67170	1365.85120	-1020.91077	-78.54547	1190.27380	-948.93457	-305.35516	1272.84924	-1177.23621	-159.25418	1399.70129	-1244.41602	-121.67442	1198.89856	-1251.57202	-95.15493	1087.98547	-1251.30823	-9.01354	962.95947	-1185.04980	85.39935	891.80664	-1229.23218	42.49800	857.07568	-1212.57788	114.41192	804.85144	-854.40411	-171.66516	1395.05469	-772.09888	-218.56396	1196.77405	-759.87878	-213.43358	1074.63940	-742.50525	-199.02811	955.09949	-771.25677	-136.44006	816.20325	-734.23114	-193.22035	817.53308	-730.77625	-156.64615	741.29333	-1124.34802	-79.74554	950.44305	-902.45264	-80.79747	965.26929	-1098.77356	-236.38760	981.43488	-929.70441	-233.16989	988.52625	-1168.99402	-183.69258	635.83746	-1144.10254	-212.75116	473.93982	-1138.15735	-362.59622	262.49673	-1097.61218	-452.57928	114.53550	-1053.51758	-497.62674	118.13904	-1092.30518	-333.22778	35.28834	-843.01288	-85.43161	637.35535	-871.97620	-54.44709	517.58667	-867.85474	-49.60247	251.39027	-911.91418	-27.96370	66.02132	-958.41772	-62.70071	40.35527	-916.20959	127.54712	39.41026	-1001.21436	-203.04848	1690.76013															 
113	1.120	-1046.83545	-88.57662	1661.90869	-917.33105	-104.61848	1641.00342	-1069.37402	-216.99208	1603.54150	-941.91754	-232.28174	1587.06628	-1019.50079	-219.99310	1445.22192	-1019.88538	-254.31406	1116.40759	-1011.35059	-110.93359	1367.31262	-1019.46729	-71.31194	1191.87622	-947.47162	-298.16873	1274.04944	-1175.62585	-152.74191	1401.11475	-1243.24683	-116.02201	1200.35071	-1250.50854	-90.42882	1089.32349	-1250.84485	-4.57679	963.97992	-1184.41455	89.40412	892.28870	-1228.80554	46.70849	857.92963	-1211.97217	118.45425	805.32239	-852.93976	-164.84665	1396.49280	-770.55664	-210.97508	1198.03455	-758.74689	-205.81094	1075.92969	-741.52643	-191.07002	956.43091	-770.50214	-128.54102	817.53296	-733.21722	-184.76390	818.90631	-730.21875	-148.03912	742.68829	-1122.68518	-72.38579	951.98828	-900.96631	-73.43898	966.24536	-1096.94849	-229.04840	982.87048	-928.03070	-225.34190	989.81921	-1167.91980	-175.43776	636.95911	-1143.35925	-203.51472	474.77463	-1137.81311	-356.91965	266.11450	-1097.78247	-448.88760	119.16045	-1053.63867	-493.47897	123.73093	-1092.16223	-332.54709	35.35119	-842.31805	-80.90958	637.39026	-871.15735	-50.68512	517.55261	-867.88672	-47.70887	251.34172	-912.12921	-27.39954	66.02537	-958.47174	-62.51442	40.48997	-916.83722	127.90283	38.81550	-999.00458	-196.97119	1691.96680															 
114	1.130	-1044.79736	-82.55251	1663.26135	-915.21820	-98.58169	1642.07886	-1067.44397	-210.83670	1604.74866	-940.01666	-226.05960	1587.96204	-1017.92432	-213.51326	1446.32019	-1018.23181	-247.11229	1117.60864	-1009.84985	-104.16091	1368.72791	-1017.94220	-64.05521	1193.33582	-945.90497	-290.98157	1275.20178	-1174.06799	-146.41953	1402.58789	-1242.06433	-110.42423	1201.71887	-1249.37378	-85.86370	1090.43372	-1249.96265	-0.44946	964.73871	-1183.88574	93.43484	892.63000	-1228.52002	50.84173	858.68103	-1211.52002	122.31193	805.68671	-851.51105	-158.04617	1397.84180	-769.22675	-203.84506	1199.35852	-757.50238	-198.32890	1077.18713	-740.50928	-183.11829	957.73016	-769.85260	-120.04731	819.06256	-732.45624	-176.61627	820.24335	-729.70758	-139.20569	744.10980	-1121.07385	-65.22356	953.47107	-899.58600	-65.87320	967.08630	-1094.98914	-221.89729	984.35834	-926.32385	-217.56673	991.01135	-1167.06348	-167.14151	638.02112	-1142.87048	-193.90175	475.53653	-1137.17932	-351.14755	269.81461	-1097.86707	-444.96072	123.89051	-1053.54602	-488.98145	129.50288	-1092.00671	-331.68192	35.53556	-840.90662	-76.21108	637.67633	-870.32312	-46.92149	517.47711	-867.42450	-45.81533	251.34383	-912.34125	-26.84629	66.03386	-958.47900	-62.27934	40.65154	-917.22571	128.28194	38.12052	-996.86487	-190.93320	1693.03015															 
